# xmcd
#
# Track frame offsets:
#	150
#	12526
#	24511
#	36117
#	50637
#	64857
#	75904
#	86478
#	98754
#	111490
#	126112
#	136751
#	150702
#	160899
#	172988
#	186146
#	197475
#	210128
#	224163
#	237042
#	249773
#	262057
#	274513
#	285366
#	300468
#
# Disc length: 4175 seconds
#
# Revision: 1
# Processed by: cddbd v1.5.1PL2 Copyright (c) Steve Scherf et al.
# Submitted via: audiograbber 1.83.01
#
DISCID=4b104d19
DTITLE=Various Artist - The R&B Years 1949 Disk 2
DYEAR=1900
DGENRE=R&B
TTITLE0=Chicago Davis - I Feel So Good
TTITLE1=Sonny Thompson - Blue Dreams
TTITLE2=Don Johnson - State Street Boogie
TTITLE3=Stick McGhee - Drinkin' Wine Spoo-Dee-o-Do
TTITLE4=Lucky Millinder - D'natural Blues
TTITLE5=Cecil Gant - I'm a good Man but a Poor Man
TTITLE6=Roy Milton - The Hucklebuck
TTITLE7=Jimmy Preston - Hucklebuck Daddy
TTITLE8=Amos Milburn - Hold Me Baby
TTITLE9=The Orioles - Tell Me So
TTITLE10=Charles Brown - Trouble Blues
TTITLE11=Pete Lewis - Midnigh in the Barrel House
TTITLE12=King Perry - Sarah ! Sarah !
TTITLE13=Todd Rhodes - Pot Likker
TTITLE14=Joe Turner - B&O Blues
TTITLE15=T.J. Fowler - Red Hot Blues
TTITLE16=City Jimmy - Saturday Night Kansas
TTITLE17=Frank Culley - Cole Slaw
TTITLE18=Five Scamps - Red Hot
TTITLE19=Wild Bill Moore - Rock and Roll
TTITLE20=Jimmy Witherspoon - Take Me Back baby
TTITLE21=Edgar Hayes - Sunday Mornin' Blues
TTITLE22=Roy Milton  - Junior Jump
TTITLE23=Max Bailey - Delinquency Blues
TTITLE24=Bob Call - Call's Jump
EXTD=
EXTT0=
EXTT1=
EXTT2=
EXTT3=
EXTT4=
EXTT5=
EXTT6=
EXTT7=
EXTT8=
EXTT9=
EXTT10=
EXTT11=
EXTT12=
EXTT13=
EXTT14=
EXTT15=
EXTT16=
EXTT17=
EXTT18=
EXTT19=
EXTT20=
EXTT21=
EXTT22=
EXTT23=
EXTT24=
PLAYORDER=
